<svg xmlns="http://www.w3.org/2000/svg" viewBox="0 0 24 24" fill="none">
  <!-- Document folder -->
  <path d="M19 3H5c-1.1 0-2 .9-2h14c1.1 0 2 .9 2v16c0 1.1-.9 2-2 2H5c-1.1 0-2-.9-2V5c0-1.1.9-2 2-2z" stroke="#8b5cf6" stroke-width="2" fill="#f3e8ff"/>
  
  <!-- Document lines -->
  <line x1="7" y1="8" x2="17" y2="8" stroke="#8b5cf6" stroke-width="1"/>
  <line x1="7" y1="11" x2="17" y2="11" stroke="#8b5cf6" stroke-width="1"/>
  <line x1="7" y1="14" x2="17" y2="14" stroke="#8b5cf6" stroke-width="1"/>
  
  <!-- Ghana Card symbol -->
  <rect x="8" y="16" width="8" height="2" rx="1" fill="#ffd700"/>
  <text x="12" y="17.5" text-anchor="middle" font-size="2" fill="#8b5cf6" font-weight="bold">GHA</text>
  
  <!-- Security shield -->
  <circle cx="12" cy="10" r="3" stroke="#10b981" stroke-width="1.5" fill="none"/>
  <path d="M12 7v3l-2 2l2-2" stroke="#10b981" stroke-width="1.5" stroke-linecap="round" fill="#10b981"/>
  <circle cx="12" cy="10" r="0.5" fill="#10b981"/>
  
  <!-- Check mark -->
  <path d="M10 10l1.5 1.5l3-3" stroke="#10b981" stroke-width="1.5" stroke-linecap="round" stroke-linejoin="round" fill="#10b981"/>
</svg>
